<svg xmlns="http://www.w3.org/2000/svg" width="62" height="62" viewBox="0 0 62 62" fill="none">
<path d="M15 31.5564L23.1223 23.4341L31.6837 31.9954M31.6837 31.9954L47.0503 47.362M31.6837 31.9954L36.5132 27.1659L47.0503 37.703M1 6C1 3.23858 3.23858 1 6 1H56C58.7614 1 61 3.23858 61 6V56C61 58.7614 58.7614 61 56 61H6C3.23858 61 1 58.7614 1 56V6ZM39.6088 17.8343C39.6088 19.5985 38.1786 21.0287 36.4144 21.0287C34.6502 21.0287 33.2201 19.5985 33.2201 17.8343C33.2201 16.0701 34.6502 14.6399 36.4144 14.6399C38.1786 14.6399 39.6088 16.0701 39.6088 17.8343Z" stroke="#d0d0d0" stroke-width="0.846561"/>
</svg>