<?xml version="1.0" standalone="no"?>
<!DOCTYPE svg PUBLIC "-//W3C//DTD SVG 20010904//EN"
 "http://www.w3.org/TR/2001/REC-SVG-20010904/DTD/svg10.dtd">
<svg version="1.0" xmlns="http://www.w3.org/2000/svg"
 width="3296.000000pt" height="1088.000000pt" viewBox="0 0 3296.000000 1088.000000"
 preserveAspectRatio="xMidYMid meet">

<g transform="translate(0.000000,1088.000000) scale(0.100000,-0.100000)"
fill="#000000" stroke="none">
<path d="M2255 10358 c-970 -109 -1763 -840 -1949 -1797 -46 -236 -47 -297
-44 -2531 4 -1930 5 -2114 21 -2210 41 -251 104 -455 207 -665 114 -236 253
-430 440 -615 341 -338 765 -549 1260 -627 108 -17 244 -18 2315 -18 2077 0
2206 1 2315 18 491 78 900 280 1244 616 350 343 547 717 653 1241 16 78 17
257 20 2300 4 2439 7 2328 -57 2588 -99 406 -298 760 -595 1057 -363 364 -832
589 -1347 644 -122 14 -4365 13 -4483 -1z m4576 -656 c138 -32 240 -66 357
-122 470 -224 795 -647 894 -1165 22 -110 22 -118 25 -2230 3 -1440 1 -2151
-6 -2218 -23 -209 -70 -369 -161 -552 -81 -160 -173 -288 -300 -415 -254 -254
-566 -408 -920 -456 -156 -20 -4274 -20 -4430 0 -355 48 -664 201 -920 456
-245 246 -397 545 -452 890 -10 69 -13 492 -13 2260 l0 2175 28 129 c114 526
459 947 950 1156 101 43 280 93 390 109 35 5 1004 8 2262 7 l2200 -2 96 -22z"/>
<path d="M6645 8886 c-124 -31 -230 -102 -302 -203 -150 -210 -127 -480 56
-662 203 -202 497 -215 705 -30 227 203 238 544 22 759 -123 124 -313 178
-481 136z"/>
<path d="M4285 8299 c-488 -53 -946 -267 -1294 -603 -419 -406 -638 -886 -676
-1481 -17 -263 45 -624 156 -902 253 -638 803 -1125 1469 -1302 208 -55 292
-65 555 -65 270 -1 395 15 615 79 807 236 1409 915 1544 1740 24 146 27 195
27 367 0 244 -29 438 -98 653 -256 795 -930 1372 -1753 1500 -128 19 -423 27
-545 14z m370 -783 c159 -10 316 -56 490 -144 376 -191 641 -540 732 -965 25
-116 25 -448 0 -564 -124 -575 -570 -1003 -1146 -1098 -151 -26 -417 -17 -557
19 -561 140 -961 575 -1051 1140 -19 125 -13 413 12 523 60 272 181 491 379
688 200 199 431 323 707 380 82 17 269 34 319 29 14 -2 66 -5 115 -8z"/>
<path d="M16190 8980 l0 -1300 205 0 205 0 0 1300 0 1300 -205 0 -205 0 0
-1300z"/>
<path d="M16880 8980 l0 -1300 200 0 200 0 0 1300 0 1300 -200 0 -200 0 0
-1300z"/>
<path d="M13300 8835 l0 -1155 215 0 215 0 0 510 0 510 305 0 305 0 0 195 0
195 -305 0 -305 0 0 255 0 255 325 0 325 0 0 195 0 195 -540 0 -540 0 0 -1155z"/>
<path d="M15117 9225 c-288 -55 -490 -253 -573 -560 -21 -81 -29 -281 -15
-375 28 -179 108 -345 218 -452 75 -74 97 -90 168 -126 119 -60 196 -77 345
-77 152 1 220 15 335 70 282 136 442 462 404 826 -35 344 -231 596 -529 678
-100 28 -252 35 -353 16z m271 -404 c122 -62 202 -217 202 -391 0 -171 -77
-317 -201 -385 -69 -38 -168 -41 -241 -8 -144 65 -239 270 -211 455 26 176
110 296 240 344 53 20 157 13 211 -15z"/>
<path d="M18088 9230 c-356 -60 -589 -333 -623 -730 -18 -212 58 -467 186
-620 244 -294 727 -335 1026 -88 113 94 201 236 245 394 18 66 21 107 22 244
0 195 -16 268 -90 419 -76 154 -223 287 -380 342 -120 43 -272 58 -386 39z
m246 -411 c171 -85 251 -347 172 -563 -109 -301 -445 -327 -579 -44 -35 74
-46 128 -47 224 0 126 37 228 112 310 43 47 91 80 136 95 48 15 155 4 206 -22z"/>
<path d="M20017 9233 c-2 -4 -80 -210 -173 -457 -92 -246 -170 -444 -172 -440
-2 5 -67 198 -145 429 l-143 420 -217 3 c-170 2 -217 0 -217 -10 1 -7 144
-353 318 -768 l318 -755 109 0 108 0 159 430 c86 237 162 439 167 450 6 15 42
-84 157 -432 l148 -453 106 0 105 0 318 750 c176 413 321 759 324 770 5 20 1
20 -213 18 l-218 -3 -147 -435 c-110 -324 -149 -430 -155 -415 -5 11 -83 218
-174 460 l-166 440 -96 3 c-53 1 -98 -1 -101 -5z"/>
<path d="M24069 9226 c-167 -48 -278 -179 -315 -371 -21 -105 -11 -200 29
-288 46 -101 129 -163 338 -252 144 -62 193 -114 186 -197 -6 -67 -44 -121
-101 -143 -85 -33 -188 4 -299 105 -30 27 -57 50 -60 50 -2 0 -44 -54 -92
-121 -102 -142 -102 -138 3 -225 166 -137 362 -184 556 -134 105 27 169 63
247 140 113 111 154 223 147 400 -6 136 -30 199 -105 281 -66 71 -95 89 -273
168 -188 84 -230 134 -185 221 48 94 176 94 294 1 l38 -30 82 120 c45 67 80
127 77 135 -10 26 -113 84 -206 115 -79 26 -114 32 -205 35 -72 2 -126 -1
-156 -10z"/>
<path d="M26265 9226 c-165 -32 -268 -87 -381 -201 -136 -137 -209 -315 -221
-541 -14 -261 65 -491 222 -648 81 -81 156 -126 276 -167 88 -31 103 -33 234
-33 163 -1 225 12 354 75 67 33 102 59 165 123 96 95 146 177 186 303 132 411
-22 853 -357 1021 -136 69 -331 97 -478 68z m275 -412 c64 -35 109 -88 151
-179 29 -61 33 -81 37 -175 6 -154 -26 -255 -111 -347 -62 -67 -126 -97 -212
-97 -162 -1 -282 121 -323 327 -13 67 -14 93 -4 160 25 172 116 293 252 338
51 17 154 4 210 -27z"/>
<path d="M27993 9225 c-82 -18 -153 -57 -208 -116 l-44 -47 -3 61 -3 62 -202
3 -203 2 0 -755 0 -755 205 0 205 0 0 468 c0 507 4 551 56 640 14 23 44 55 66
70 36 23 52 27 113 27 61 0 78 -4 112 -27 49 -32 78 -88 92 -178 7 -38 11
-257 11 -532 l0 -468 200 0 200 0 0 533 c0 592 -5 646 -69 783 -35 76 -115
160 -182 192 -99 48 -231 62 -346 37z"/>
<path d="M22212 8653 c4 -500 5 -532 25 -604 60 -215 183 -339 393 -396 49
-14 103 -18 215 -18 129 0 160 3 225 23 112 35 184 78 247 146 63 68 102 144
135 261 21 77 22 102 26 598 l4 517 -206 0 -206 0 0 -458 c0 -288 -4 -480 -11
-517 -15 -85 -52 -150 -100 -182 -36 -24 -52 -27 -114 -27 -62 0 -78 3 -114
27 -48 32 -85 97 -100 182 -7 37 -11 229 -11 517 l0 458 -206 0 -206 0 4 -527z"/>
<path d="M11068 6779 c-160 -23 -421 -193 -653 -424 -197 -196 -344 -412 -448
-656 -228 -535 -213 -926 47 -1248 114 -142 331 -278 458 -288 62 -5 66 -4 87
23 30 38 24 89 -20 158 -137 216 -189 395 -189 659 0 311 66 588 210 882 89
183 172 306 277 411 134 134 127 147 131 -246 1 -179 -2 -1020 -8 -1870 -10
-1641 -10 -1633 -60 -1875 -11 -55 -37 -154 -57 -220 -38 -126 -46 -196 -25
-217 21 -21 104 -13 166 15 259 119 455 382 546 732 47 181 60 296 70 655 11
347 4 3258 -7 3295 -12 41 -46 76 -111 113 -149 86 -288 120 -414 101z"/>
<path d="M17298 6764 c-63 -34 -73 -95 -88 -554 -9 -243 -14 -318 -25 -329
-12 -12 -56 -13 -305 -3 -210 8 -297 8 -315 0 -27 -12 -76 -99 -99 -177 -18
-61 -21 -186 -6 -225 5 -15 20 -31 32 -36 13 -5 164 -14 337 -20 191 -6 319
-14 327 -21 10 -8 11 -149 7 -712 -5 -648 -7 -708 -24 -779 -61 -247 -193
-489 -364 -666 l-80 -84 0 154 c0 146 -1 157 -31 240 -78 217 -189 335 -616
657 -164 123 -298 230 -298 236 0 7 9 20 21 31 35 31 144 202 198 309 114 226
119 392 16 483 -59 52 -116 67 -245 67 -167 -1 -292 -54 -418 -178 -126 -124
-202 -282 -210 -441 -7 -138 23 -241 107 -365 23 -33 41 -65 41 -71 0 -58
-559 -1021 -680 -1172 -115 -142 -189 -180 -244 -125 -69 69 -81 491 -40 1472
9 209 13 400 10 423 -18 138 -112 233 -341 344 -89 43 -116 52 -178 56 -163
10 -284 -43 -433 -192 -207 -208 -341 -459 -533 -1001 -51 -143 -96 -267 -99
-275 -4 -8 -9 284 -12 650 -4 515 -8 670 -18 687 -31 55 -294 143 -423 143
-60 0 -96 -23 -109 -70 -7 -26 -11 -441 -13 -1272 -2 -1169 -1 -1236 16 -1298
25 -88 74 -176 114 -207 46 -35 130 -53 248 -52 116 1 171 14 196 49 12 16 26
71 39 155 83 528 218 991 422 1445 130 289 262 510 398 664 76 86 98 102 113
87 8 -8 3 -184 -16 -623 -36 -799 -35 -978 9 -1267 39 -256 130 -421 268 -483
75 -34 205 -32 300 5 177 70 380 258 568 528 63 90 647 1055 661 1092 3 9 11
17 17 17 13 0 230 -198 357 -327 117 -119 183 -213 226 -322 25 -62 31 -95 35
-183 6 -140 -17 -222 -83 -295 -63 -71 -127 -97 -221 -91 -90 6 -167 41 -316
144 -132 91 -156 101 -210 85 -119 -36 -270 -290 -243 -411 23 -104 261 -212
565 -256 164 -24 399 -15 531 19 178 46 299 104 443 210 203 151 357 351 528
689 l62 123 7 -40 c4 -22 15 -89 24 -149 52 -347 192 -627 378 -754 210 -145
459 -139 654 16 121 96 254 278 351 480 35 73 65 132 67 130 2 -2 19 -50 39
-108 73 -210 164 -356 288 -460 217 -183 519 -211 803 -76 160 76 288 193 407
370 33 50 63 90 66 89 3 -1 14 -32 25 -70 52 -189 176 -348 324 -415 123 -55
301 -73 416 -43 161 42 294 158 402 351 l48 85 57 -88 c112 -174 236 -279 399
-337 79 -27 97 -30 216 -30 137 0 201 11 317 58 131 53 259 151 371 285 38 44
73 81 78 81 12 0 12 -222 0 -253 -5 -13 -108 -113 -228 -222 -459 -418 -650
-611 -787 -798 -197 -266 -259 -538 -181 -786 64 -201 246 -364 495 -443 65
-20 95 -23 230 -23 131 0 168 4 239 23 393 107 634 412 741 937 49 240 54 319
56 880 0 292 2 535 2 542 1 6 36 53 78 105 132 160 220 280 348 475 261 396
469 805 612 1202 38 105 52 132 68 136 12 2 110 6 218 9 251 7 239 15 202
-134 -25 -103 -73 -405 -90 -570 -32 -318 -7 -683 63 -905 82 -260 256 -461
483 -556 102 -43 190 -54 297 -35 184 32 329 137 448 325 l58 92 51 -78 c61
-94 171 -205 249 -252 184 -109 393 -126 619 -51 211 70 362 197 517 432 l58
88 17 -63 c9 -34 38 -105 64 -157 100 -203 285 -327 520 -346 135 -11 260 31
359 121 63 56 110 119 172 229 l47 84 13 -141 c16 -183 28 -207 128 -246 96
-37 208 -54 318 -47 171 10 215 32 234 115 6 25 15 178 21 340 14 414 38 610
105 887 56 229 150 485 257 698 58 117 101 157 112 104 3 -13 8 -99 11 -193
16 -474 63 -1001 111 -1250 19 -99 60 -238 84 -285 56 -110 172 -186 298 -197
76 -6 177 9 225 34 43 22 54 63 60 223 18 412 127 941 277 1345 55 149 140
347 155 363 10 11 11 -60 7 -350 -12 -882 57 -1319 247 -1569 198 -263 536
-350 771 -199 161 103 280 324 339 633 42 215 20 341 -61 361 -29 7 -42 6 -62
-8 -42 -27 -54 -54 -100 -232 -68 -262 -113 -360 -188 -414 -33 -24 -51 -30
-94 -30 -157 0 -259 215 -294 625 -15 175 -15 842 1 1218 13 336 11 359 -40
428 -14 20 -40 48 -58 63 -83 70 -358 176 -454 176 -52 0 -114 -22 -149 -52
-41 -35 -75 -99 -144 -273 -158 -403 -270 -787 -342 -1178 -22 -118 -27 -110
-48 74 -20 174 -34 424 -41 784 -8 352 -15 391 -96 480 -62 67 -109 96 -225
137 -71 25 -106 31 -175 32 -77 1 -89 -2 -126 -26 -92 -61 -165 -220 -349
-761 l-129 -377 -5 497 c-5 503 -7 532 -43 561 -44 37 -310 102 -417 102 -54
0 -65 -3 -90 -28 -21 -22 -30 -41 -34 -83 -3 -30 -10 -434 -15 -899 -8 -804
-10 -849 -29 -925 -70 -275 -206 -516 -324 -576 -80 -41 -183 -14 -238 62
-119 164 -138 533 -99 1827 14 428 14 424 -53 476 -70 53 -256 106 -373 105
-114 0 -157 -40 -165 -151 l-5 -71 -45 57 c-201 255 -555 339 -833 200 -309
-155 -546 -561 -637 -1089 -43 -250 -47 -503 -14 -798 25 -229 17 -305 -45
-432 -44 -88 -114 -169 -166 -191 -49 -20 -128 -18 -174 6 -240 122 -312 765
-166 1477 15 70 42 195 61 278 47 203 51 250 29 332 -15 55 -27 76 -69 119
-90 92 -206 106 -464 55 -213 -42 -453 -84 -457 -79 -3 2 0 31 5 64 23 140 7
231 -51 298 -46 52 -89 74 -169 87 -124 20 -268 -29 -353 -120 -131 -140 -174
-371 -98 -525 17 -35 54 -87 82 -117 49 -53 50 -55 46 -104 -7 -61 -82 -296
-149 -465 -64 -160 -166 -373 -253 -525 -84 -148 -247 -405 -257 -405 -12 0
-10 923 3 1457 12 544 18 506 -94 558 -96 43 -183 65 -292 71 -75 5 -96 2
-125 -13 -52 -27 -80 -75 -80 -139 0 -30 -4 -54 -9 -54 -4 0 -31 27 -60 60
-134 153 -335 250 -521 250 -318 0 -595 -223 -769 -619 -122 -275 -181 -524
-200 -842 -10 -154 -8 -227 15 -554 12 -171 -35 -332 -133 -459 -61 -79 -104
-109 -167 -114 -74 -6 -99 2 -148 46 -78 70 -125 226 -149 492 -14 159 -7
1055 11 1464 7 142 9 273 5 292 -19 104 -201 187 -412 188 -88 1 -105 -2 -130
-20 -37 -28 -55 -67 -62 -136 l-6 -57 -45 57 c-95 119 -253 216 -402 246 -95
20 -155 20 -250 2 -250 -48 -462 -232 -617 -536 -139 -271 -205 -554 -231
-985 -19 -321 -70 -479 -230 -718 -134 -201 -280 -290 -379 -231 -62 37 -116
149 -152 318 -37 179 -44 383 -31 990 13 577 37 1209 46 1224 3 5 171 12 373
16 232 5 380 12 402 19 61 20 105 112 118 244 7 71 -9 106 -55 124 -27 11
-572 48 -707 49 -92 0 -120 15 -119 60 0 19 6 185 13 368 14 379 17 364 -67
406 -104 52 -351 117 -446 116 -22 -1 -53 -7 -68 -16z m5318 -1925 c187 -87
264 -335 264 -847 0 -365 -73 -724 -193 -957 -50 -96 -157 -210 -232 -245
-157 -75 -303 -3 -396 194 -43 92 -70 196 -95 361 -20 137 -14 560 10 725 33
215 92 412 161 536 44 79 133 176 194 212 88 51 203 60 287 21z m4762 -4 c128
-69 207 -217 249 -465 21 -122 23 -568 4 -715 -46 -360 -146 -627 -288 -770
-193 -195 -392 -153 -518 109 -77 161 -110 406 -102 761 7 267 25 438 63 595
68 276 184 446 344 504 71 26 182 17 248 -19z m-7495 -4 c115 -56 205 -201
249 -401 21 -96 23 -130 23 -410 0 -337 -9 -427 -66 -660 -55 -225 -128 -371
-243 -486 -78 -78 -151 -114 -229 -114 -94 0 -205 87 -266 207 -79 157 -111
327 -118 626 -12 485 59 861 204 1079 51 78 105 126 183 163 48 22 66 25 135
23 59 -2 92 -9 128 -27z m3058 -3268 c-17 -294 -45 -473 -107 -665 -45 -138
-97 -218 -179 -273 -154 -104 -311 -99 -428 13 -76 72 -104 174 -87 311 14
109 35 172 96 292 109 214 267 418 542 700 l167 172 3 -179 c2 -98 -2 -265 -7
-371z"/>
</g>
</svg>
