<svg width="553" height="311" viewBox="0 0 553 311" fill="none" xmlns="http://www.w3.org/2000/svg">
<path d="M131.322 270.31C122.357 270.31 114.813 268.592 108.692 265.156C102.926 261.799 99.0552 257.336 97.0805 251.767C96.3302 249.595 95.9352 247.226 95.8957 244.659C95.8957 241.302 96.4881 237.964 97.673 234.647C100.319 227.34 104.604 220.567 110.528 214.327C119.651 204.809 129.94 197.424 141.393 192.171C139.853 188.34 138.174 184.469 136.357 180.56C134.659 177.163 132.467 172.266 129.782 165.868C125.674 156.626 123.621 148.392 123.621 141.164C123.66 140.927 123.68 140.67 123.68 140.394C123.798 139.13 123.996 137.926 124.272 136.78C124.351 136.227 124.549 135.497 124.865 134.588L125.102 133.818C127.353 127.618 131.065 122.345 136.239 118.001C145.086 110.576 156.105 105.422 169.296 102.539C177.352 100.643 185.192 99.6953 192.814 99.6953C197.554 99.6953 202.332 100.13 207.151 100.999C212.759 102.025 217.439 103.862 221.191 106.508C224.508 108.759 226.76 111.623 227.944 115.098C228.537 116.836 228.833 118.712 228.833 120.726C228.596 124.478 227.628 127.914 225.93 131.034C223.166 136.208 218.663 141.263 212.423 146.2C204.208 152.519 194.868 158.107 184.402 162.965C191.708 163.636 197.929 165.256 203.063 167.823L203.418 168C208.237 170.528 212.147 173.688 215.148 177.479L215.563 177.953C224.607 179.138 231.933 181.29 237.541 184.41C237.936 184.647 238.331 184.864 238.726 185.062C239.121 185.259 239.733 185.635 240.563 186.187C241.59 186.819 242.577 187.511 243.525 188.261L245.48 189.742C245.598 189.86 245.677 189.999 245.717 190.157C245.717 190.631 245.48 190.868 245.006 190.868C244.887 190.868 244.789 190.848 244.71 190.808C244.631 190.769 243.979 190.275 242.755 189.327C242.004 188.735 241.017 188.063 239.793 187.313C239.477 187.116 239.161 186.918 238.845 186.721C238.529 186.523 238.213 186.345 237.897 186.187C237.581 186.03 237.245 185.852 236.89 185.654C232.387 183.087 225.713 181.152 216.866 179.849C217.103 180.086 217.518 180.698 218.11 181.685C218.229 181.962 218.367 182.218 218.525 182.455L219.414 183.996C221.783 189.248 222.968 194.323 222.968 199.221C222.968 201.669 222.692 204.157 222.139 206.685C220.598 213.359 217.952 219.461 214.2 224.99C206.223 237.076 195.796 246.929 182.921 254.552C181.618 255.381 180.769 255.895 180.374 256.092C171.645 260.91 162.503 264.623 152.945 267.229C145.441 269.283 138.233 270.31 131.322 270.31ZM143.229 191.282L146.369 189.86L147.495 189.446V189.387C150.457 179.355 153.221 170.429 155.789 162.609L156.677 159.884C159.481 151.235 161.851 144.166 163.786 138.676L168.288 125.821C168.683 124.794 169.394 124.28 170.421 124.28C170.658 124.28 170.895 124.32 171.132 124.399C172.159 124.794 172.672 125.505 172.672 126.532C172.672 126.769 172.633 127.006 172.554 127.242L162.957 157.041C161.022 162.846 157.921 172.819 153.656 186.958C159.422 184.825 165.07 183.067 170.599 181.685C182.803 178.763 193.821 177.301 203.655 177.301C205.433 177.301 207.17 177.341 208.869 177.42C206.657 175.406 204.208 173.688 201.523 172.266C201.325 172.187 201.148 172.088 200.99 171.97C198.936 171.061 197.514 170.489 196.724 170.252C191.551 168.435 185.646 167.526 179.011 167.526C176.326 167.526 174.173 167.625 172.554 167.823C169.394 168.81 167.025 169.363 165.445 169.481L164.379 169.422C163.826 169.422 163.292 169.264 162.779 168.948C161.752 168.316 161.239 167.467 161.239 166.401C161.239 166.203 161.239 166.026 161.239 165.868C161.278 165.71 161.318 165.591 161.357 165.512C161.397 165.433 161.416 165.374 161.416 165.335C161.416 165.256 161.436 165.177 161.476 165.098L161.535 165.038C161.574 164.841 161.693 164.604 161.89 164.327C162.404 163.696 163.134 163.281 164.082 163.083C164.398 163.044 164.793 163.024 165.267 163.024C165.741 163.024 166.176 163.083 166.57 163.202C167.005 163.281 167.42 163.36 167.815 163.439L171.191 163.083C177.945 160.793 185.33 157.337 193.347 152.716C198.956 149.596 204.248 146.081 209.224 142.171C214.951 137.55 218.959 133.028 221.25 128.605C222.869 125.603 223.679 122.799 223.679 120.193C223.679 116.441 221.882 113.202 218.288 110.477C215.207 108.187 211.179 106.469 206.203 105.323C200.871 104.138 195.46 103.546 189.971 103.546C176.819 103.546 164.458 106.054 152.886 111.07C140.327 116.441 132.013 123.885 127.945 133.404C127.787 133.799 127.649 134.213 127.531 134.648L127.234 135.359C126.839 136.741 126.563 137.827 126.405 138.617C126.286 139.17 126.188 139.821 126.109 140.572C126.109 140.848 126.089 141.105 126.049 141.342L125.99 142.764C125.99 144.975 126.227 147.207 126.701 149.458C127.925 154.829 129.604 160.023 131.737 165.038C134.106 170.765 136.713 176.729 139.556 182.929C140.82 185.733 142.045 188.518 143.229 191.282ZM144 225.109L144.414 224.576C144.691 224.023 145.007 223.47 145.362 222.917L146.31 220.014C146.468 219.422 146.586 218.889 146.665 218.415C146.863 217.151 146.962 215.848 146.962 214.505C146.962 213.478 146.902 212.451 146.784 211.424C145.599 215.571 144.671 220.133 144 225.109ZM145.481 196.673L146.606 192.586L144.237 193.711L145.481 196.673ZM130.848 266.637C132.151 266.637 133.455 266.598 134.758 266.519C145.579 265.768 156.914 262.727 168.762 257.395C171.369 256.25 174.726 254.552 178.833 252.301L184.698 248.628C189.714 245.192 194.434 241.302 198.857 236.957C209.007 227.005 215.326 216.618 217.814 205.796C218.249 203.624 218.466 201.491 218.466 199.398C218.466 195.567 217.735 191.815 216.274 188.142C215.444 186.326 214.931 185.279 214.734 185.003C214.536 184.687 214.378 184.41 214.26 184.173C213.983 183.699 213.667 183.206 213.312 182.692L212.956 182.159C212.206 181.132 211.436 180.165 210.646 179.256C208.79 179.138 206.894 179.079 204.959 179.079C195.006 179.079 183.731 180.678 171.132 183.877C165.168 185.417 159.047 187.432 152.767 189.92C150.793 196.634 149.351 201.649 148.443 204.967C150.022 209.548 150.812 213.735 150.812 217.526L150.753 219.126L150.694 219.836C150.536 221.219 150.161 222.838 149.568 224.694C148.739 226.393 148.265 227.261 148.146 227.301C148.146 227.38 147.791 227.913 147.08 228.9C147.08 228.94 147.041 228.979 146.962 229.019L146.31 229.73C145.876 230.362 145.283 230.875 144.533 231.27L144.414 231.389C143.703 231.744 143.032 231.922 142.4 231.922C141.373 231.803 140.603 231.408 140.09 230.737V230.678C139.616 230.046 139.339 229.394 139.26 228.723C139.26 228.683 139.241 228.663 139.201 228.663C139.122 227.834 139.083 227.064 139.083 226.353C139.083 225.84 139.102 225.346 139.142 224.872L139.201 224.635C139.754 220.133 140.524 215.887 141.511 211.898C142.973 206.053 143.94 202.242 144.414 200.465C143.861 198.569 143.21 196.693 142.459 194.837L142.341 194.6C135.864 197.72 129.604 201.63 123.561 206.329C114.715 213.438 108.139 220.883 103.834 228.663C101.227 233.205 99.6872 238.043 99.2132 243.178L99.154 244.481C99.154 245.31 99.2527 246.456 99.4502 247.917L99.7464 249.161C99.8649 249.635 100.023 250.128 100.22 250.642C102.037 255.5 105.434 259.311 110.41 262.075C115.781 265.116 122.594 266.637 130.848 266.637ZM243.11 216.104H242.755C242.123 216.104 241.491 215.927 240.859 215.571C239.477 214.584 238.785 212.807 238.785 210.239C238.785 208.778 238.884 207.416 239.082 206.152C240.109 199.833 241.827 193.178 244.236 186.187C244.433 185.674 244.591 185.2 244.71 184.766L245.776 181.744C246.052 180.994 246.546 180.461 247.257 180.145C247.652 179.947 248.047 179.849 248.442 179.849C248.758 179.849 249.093 179.908 249.449 180.026C250.713 180.5 251.345 181.369 251.345 182.633C251.345 183.186 251.266 183.581 251.108 183.818L250.634 184.943C250.397 185.733 249.982 186.76 249.39 188.024C248.244 190.789 246.882 194.54 245.302 199.28C243.643 204.256 242.774 208.107 242.695 210.832C242.695 211.503 242.755 212.017 242.873 212.372L242.932 212.491C243.604 212.491 244.71 211.957 246.25 210.891C249.409 208.758 252.766 205.322 256.321 200.583L260.882 194.6L261.001 194.54C261.238 194.225 261.534 193.928 261.89 193.652V193.593L262.127 193.474C262.324 193.356 262.502 193.277 262.66 193.237C263.292 193.237 263.608 193.553 263.608 194.185V194.718C263.568 195.469 263.41 196.298 263.134 197.206C262.66 199.576 262.363 201.926 262.245 204.256C262.245 205.006 262.285 205.737 262.363 206.448C262.521 207.949 263.035 208.699 263.904 208.699C264.457 208.699 265.148 208.423 265.977 207.87C269.492 205.421 273.758 200.879 278.773 194.244L282.269 189.623C282.387 189.465 282.565 189.387 282.802 189.387C283.078 189.387 283.256 189.544 283.335 189.86C283.335 190.018 283.295 190.176 283.216 190.334L280.61 194.007C278.833 196.495 276.246 199.675 272.849 203.545C272.849 203.585 272.829 203.604 272.79 203.604C271.171 205.54 269.156 207.376 266.747 209.114C265.76 209.785 264.792 210.121 263.845 210.121C262.936 210.121 262.265 209.785 261.83 209.114C261.159 208.087 260.823 206.645 260.823 204.789C260.823 203.17 261.179 200.563 261.89 196.969L262.186 195.429C261.988 195.627 261.495 196.337 260.705 197.562C259.796 198.984 258.868 200.386 257.92 201.768C253.3 209.035 248.995 213.656 245.006 215.63L244.769 215.69C244.295 215.927 243.742 216.065 243.11 216.104ZM290.858 209.943H290.385C289.871 209.943 289.318 209.844 288.726 209.647C287.265 208.897 286.534 207.337 286.534 204.967C286.534 203.782 286.751 202.301 287.186 200.524C287.817 197.957 288.607 195.488 289.555 193.119C286.909 192.961 284.559 192.428 282.505 191.519C281.716 191.164 281.064 190.67 280.551 190.038C280.037 189.367 279.78 188.656 279.78 187.905C279.78 187.155 280.096 186.385 280.728 185.595C281.005 185.319 281.38 185.003 281.854 184.647H281.913C282.269 184.371 282.802 184.233 283.513 184.233C284.816 184.233 285.665 184.943 286.06 186.365C286.218 186.997 286.297 187.629 286.297 188.261V188.676C286.81 188.715 287.344 188.814 287.896 188.972L292.043 189.209L292.28 189.446C292.754 189.485 293.11 189.683 293.347 190.038C293.623 190.354 293.761 190.71 293.761 191.104C293.761 191.46 293.702 191.756 293.584 191.993C292.478 193.928 291.49 195.943 290.622 198.036C289.318 201.077 288.667 203.585 288.667 205.559C288.667 206.112 288.746 206.645 288.904 207.159C289.18 207.791 289.753 208.107 290.622 208.107C292.122 208.107 294.176 207.376 296.783 205.915C302.786 202.4 309.934 196.851 318.228 189.268C318.346 189.15 318.504 189.09 318.702 189.09C319.136 189.169 319.354 189.387 319.354 189.742V189.92C319.354 190.315 315.819 193.415 308.749 199.221C304.405 202.815 300.673 205.52 297.553 207.337C295.025 208.837 292.794 209.706 290.858 209.943ZM323.145 208.166C320.775 208.166 318.84 207.495 317.339 206.152C315.523 204.414 314.614 202.005 314.614 198.924C314.614 197.424 314.891 195.943 315.444 194.481C316.312 192.033 317.517 189.88 319.057 188.024C320.558 186.089 322.316 184.529 324.33 183.344C325.673 182.475 327.035 182.041 328.417 182.041C328.931 182.08 329.444 182.179 329.958 182.337C330.037 182.416 330.155 182.495 330.313 182.574C330.471 182.613 330.669 182.712 330.906 182.87C331.577 183.383 331.913 184.055 331.913 184.884C331.913 185.556 331.656 186.207 331.143 186.839L330.432 187.55C329.642 188.261 328.536 188.952 327.114 189.623C324.705 190.848 322.691 191.638 321.072 191.993C319.176 194.6 318.228 197.167 318.228 199.694C318.228 202.617 319.393 204.611 321.723 205.678C322.474 205.875 323.244 205.974 324.034 205.974C325.258 205.974 326.482 205.717 327.707 205.204C330.985 203.782 334.184 201.57 337.304 198.569C338.607 197.305 340.503 195.212 342.991 192.289L344.946 189.683C345.064 189.564 345.222 189.485 345.42 189.446C345.578 189.446 345.716 189.505 345.834 189.623C345.992 189.702 346.091 189.821 346.131 189.979C346.131 190.176 346.071 190.354 345.953 190.512L345.064 191.697C344.59 192.368 343.425 193.79 341.569 195.962C339.436 198.529 336.909 201.037 333.986 203.486C330.195 206.606 326.581 208.166 323.145 208.166ZM336.77 218.355C336.376 218.355 336.079 218.336 335.882 218.296C334.618 218.059 333.986 216.973 333.986 215.038C334.421 211.286 337.442 202.617 343.05 189.031C343.484 187.886 344.294 187.313 345.479 187.313C345.834 187.313 346.19 187.392 346.545 187.55C347.691 187.984 348.263 188.794 348.263 189.979C348.263 190.334 348.184 190.69 348.026 191.045C346.447 194.402 345.578 196.278 345.42 196.673C343.919 199.833 342.122 203.999 340.029 209.173C339.989 209.252 339.93 209.39 339.851 209.588C341.549 207.179 343.307 204.611 345.123 201.886C350.811 193.237 355.589 186.74 359.46 182.396C362.382 179.079 365.028 177.341 367.398 177.183C368.543 177.262 369.412 177.736 370.005 178.605C370.795 179.631 371.19 181.191 371.19 183.285C371.19 184.864 370.795 187.491 370.005 191.164C369.333 194.007 368.998 196.219 368.998 197.799V198.332C369.077 199.714 369.689 200.405 370.834 200.405C371.387 200.405 372.197 200.228 373.263 199.872C377.054 198.371 381.122 196.002 385.467 192.763C388.429 190.631 389.93 189.544 389.969 189.505C390.048 189.465 390.186 189.446 390.384 189.446C390.739 189.525 390.917 189.742 390.917 190.097C390.917 190.295 390.838 190.473 390.68 190.631C389.219 191.697 387.757 192.763 386.296 193.83C384.835 194.856 383.077 196.061 381.024 197.443C379.009 198.786 376.6 200.07 373.796 201.294C372.69 201.728 371.683 201.946 370.775 201.946C368.484 201.946 367.339 200.445 367.339 197.443C367.339 195.943 367.655 193.711 368.287 190.749C368.958 187.274 369.294 184.884 369.294 183.581C369.294 182.001 368.998 180.737 368.405 179.789C368.366 179.789 368.346 179.77 368.346 179.73C368.07 179.414 367.734 179.256 367.339 179.256C364.179 179.454 357.702 187.609 347.908 203.723C345.578 207.593 343.682 210.615 342.221 212.787C342.063 212.984 341.924 213.201 341.806 213.438C339.95 216.282 338.271 217.921 336.77 218.355ZM391.391 206.981C389.614 206.981 388.37 206.349 387.659 205.085C387.027 203.782 386.711 202.578 386.711 201.472C386.869 197.996 387.481 194.659 388.547 191.46L389.199 189.505C389.515 188.597 390.147 188.142 391.095 188.142C391.332 188.142 391.569 188.182 391.806 188.261C392.714 188.577 393.168 189.189 393.168 190.097C393.168 190.571 393.109 190.887 392.99 191.045L392.753 191.519C392.714 191.677 392.516 192.112 392.161 192.822C391.648 193.968 391.075 195.548 390.443 197.562C389.93 199.458 389.673 200.899 389.673 201.886C389.673 202.755 389.752 203.407 389.91 203.841C390.147 204.473 390.818 204.789 391.924 204.789C393.069 204.789 394.471 204.414 396.13 203.664C400.316 201.649 404.661 198.648 409.163 194.659L414.495 189.801C414.613 189.683 414.771 189.623 414.969 189.623C415.364 189.623 415.561 189.801 415.561 190.157C415.561 190.394 415.502 190.591 415.384 190.749H415.324L408.156 196.732C406.063 198.549 403.516 200.504 400.514 202.597L400.395 202.716C398.184 204.256 396.881 205.085 396.486 205.204C394.55 206.389 392.852 206.981 391.391 206.981ZM392.635 183.225C392.161 183.225 391.766 183.087 391.45 182.811C391.174 182.495 391.035 182.1 391.035 181.626C391.035 181.191 391.174 180.816 391.45 180.5C391.766 180.184 392.161 180.026 392.635 180.026C393.069 180.026 393.445 180.184 393.76 180.5C394.076 180.816 394.234 181.191 394.234 181.626C394.234 182.1 394.076 182.495 393.76 182.811C393.445 183.087 393.069 183.225 392.635 183.225ZM407.504 218.355C407.109 218.355 406.813 218.336 406.616 218.296C405.352 218.059 404.72 216.973 404.72 215.038C405.155 211.286 408.176 202.617 413.784 189.031C414.218 187.886 415.028 187.313 416.213 187.313C416.568 187.313 416.924 187.392 417.279 187.55C418.425 187.984 418.997 188.794 418.997 189.979C418.997 190.334 418.918 190.69 418.76 191.045C417.18 194.402 416.312 196.278 416.154 196.673C414.653 199.833 412.856 203.999 410.763 209.173C410.723 209.252 410.664 209.39 410.585 209.588C412.283 207.179 414.041 204.611 415.857 201.886C421.545 193.237 426.323 186.74 430.194 182.396C433.116 179.079 435.762 177.341 438.132 177.183C439.277 177.262 440.146 177.736 440.739 178.605C441.529 179.631 441.924 181.191 441.924 183.285C441.924 184.864 441.529 187.491 440.739 191.164C440.067 194.007 439.732 196.219 439.732 197.799V198.332C439.811 199.714 440.423 200.405 441.568 200.405C442.121 200.405 442.931 200.228 443.997 199.872C447.788 198.371 451.856 196.002 456.201 192.763C459.163 190.631 460.664 189.544 460.703 189.505C460.782 189.465 460.92 189.446 461.118 189.446C461.473 189.525 461.651 189.742 461.651 190.097C461.651 190.295 461.572 190.473 461.414 190.631C459.953 191.697 458.491 192.763 457.03 193.83C455.569 194.856 453.811 196.061 451.758 197.443C449.743 198.786 447.334 200.07 444.53 201.294C443.424 201.728 442.417 201.946 441.509 201.946C439.218 201.946 438.073 200.445 438.073 197.443C438.073 195.943 438.389 193.711 439.021 190.749C439.692 187.274 440.028 184.884 440.028 183.581C440.028 182.001 439.732 180.737 439.139 179.789C439.1 179.789 439.08 179.77 439.08 179.73C438.804 179.414 438.468 179.256 438.073 179.256C434.913 179.454 428.436 187.609 418.642 203.723C416.312 207.593 414.416 210.615 412.955 212.787C412.797 212.984 412.658 213.201 412.54 213.438C410.684 216.282 409.005 217.921 407.504 218.355ZM456.556 205.559C456.24 205.559 455.885 205.48 455.49 205.322C454.779 205.125 454.305 204.789 454.068 204.315C453.989 204.236 453.93 204.177 453.89 204.138C453.851 204.059 453.772 203.901 453.653 203.664L453.357 202.716L453.298 201.709C453.298 200.682 453.476 199.694 453.831 198.747C454.976 195.903 456.418 193.514 458.156 191.578C461.394 187.708 464.791 184.785 468.345 182.811C470.201 181.705 472.018 181.152 473.795 181.152C474.664 181.152 475.494 181.33 476.283 181.685C477.389 182.278 478.14 182.969 478.535 183.759L478.89 184.469C479.048 184.825 479.127 185.18 479.127 185.536C479.127 186.484 478.673 187.195 477.764 187.669C477.409 187.826 477.034 187.905 476.639 187.905C475.691 187.905 474.98 187.451 474.506 186.543V186.484L474.328 186.069H474.269V186.01C474.23 186.01 474.21 185.99 474.21 185.951C474.21 185.911 474.151 185.891 474.032 185.891C473.914 185.891 473.795 185.872 473.677 185.832C471.9 185.832 469.352 187.155 466.035 189.801C461.967 193.04 459.123 196.456 457.504 200.05C457.267 200.642 457.149 201.195 457.149 201.709C459.202 201.037 461.987 199.339 465.502 196.614L470.419 192.704C471.05 192.072 471.485 191.697 471.722 191.578L472.137 191.341C472.453 191.183 472.749 191.104 473.025 191.104C474.092 191.104 474.862 191.578 475.336 192.526C475.454 192.842 475.513 193.158 475.513 193.474C475.513 193.83 475.474 194.067 475.395 194.185C475.355 194.264 475.316 194.343 475.276 194.422C475.276 194.501 475.237 194.6 475.158 194.718C474.289 196.89 473.855 198.529 473.855 199.635C473.855 200.267 473.953 200.682 474.151 200.879C474.388 201.077 474.763 201.195 475.276 201.235C476.343 201.235 477.449 200.998 478.594 200.524C481.872 199.3 485.446 197.305 489.317 194.54L489.494 194.422C490.679 193.593 491.706 192.822 492.575 192.112L496.129 189.327C496.248 189.248 496.386 189.209 496.544 189.209C496.82 189.288 496.959 189.485 496.959 189.801C496.959 189.92 496.899 190.038 496.781 190.157L490.087 195.251C487.125 197.424 485.525 198.549 485.288 198.628C483.55 199.892 481.556 201.077 479.305 202.183C477.725 203.012 476.264 203.427 474.921 203.427C473.46 203.427 472.433 202.795 471.84 201.531C471.485 200.86 471.307 199.991 471.307 198.924C471.307 197.818 471.445 196.772 471.722 195.785L470.892 196.555C466.746 200.109 463.25 202.696 460.407 204.315C459.143 205.066 457.859 205.48 456.556 205.559Z" fill="black"/>
<path d="M0 42.0481H10.308C10.6634 42.0876 10.8411 42.2653 10.8411 42.5813C9.45884 42.8183 8.7677 43.2724 8.7677 43.9438C27.5274 92.7586 37.164 117.363 37.6774 117.758L66.0539 43.9438C66.0539 43.0355 64.9284 42.5813 62.6772 42.5813V42.0481H70.2008V42.2851C70.2008 42.5221 69.3319 42.8775 67.5942 43.3514C47.7682 93.7854 37.1837 121.629 35.8409 126.882H35.604C35.2485 126.724 29.6601 112.407 18.8387 83.9316L3.08054 43.9438C2.52762 43.3514 1.50078 42.8972 0 42.5813V42.0481ZM81.9591 42.0481H128.404C128.72 42.0481 129.49 44.2795 130.715 48.7424L130.241 49.0386C128.503 45.4446 124.534 43.6476 118.333 43.6476H91.7931C90.7268 43.6476 90.1936 44.1808 90.1936 45.2471V75.8748H116.26C118.511 75.8748 119.715 74.532 119.873 71.8464H120.17L120.407 72.3796V80.7326C120.407 81.0881 120.229 81.2658 119.873 81.2658C119.873 78.5802 118.254 77.2374 115.016 77.2374H90.1936V124.512C90.1936 124.749 90.4503 125.006 90.9637 125.282H124.257C128.523 125.282 131.623 123.485 133.558 119.891H133.854C133.854 120.089 133.933 120.187 134.091 120.187C132.828 124.848 132.057 127.178 131.781 127.178H82.1961C81.8801 127.178 81.7221 127 81.7221 126.645C83.7758 126.408 84.8027 125.598 84.8027 124.216V45.0102C84.8027 43.6279 83.8548 42.8183 81.9591 42.5813V42.0481ZM145.79 42.0481H179.854C192.137 42.0481 200.391 48.0512 204.617 60.0574C205.328 62.4666 205.683 64.8757 205.683 67.2849V67.818C205.683 79.6268 199.581 87.7823 187.378 92.2847C186.667 92.2847 186.311 92.3636 186.311 92.5216C199.502 112.664 206.987 123.86 208.764 126.111C209.791 126.269 210.304 126.526 210.304 126.882L209.83 127.178H199.463C199.147 127.178 198.989 127 198.989 126.645C200.687 126.25 201.536 125.795 201.536 125.282V124.749C201.536 123.801 197.745 117.798 190.162 106.74C184.396 97.8533 181.315 93.2918 180.92 93.0548H154.084V124.512C154.084 125.618 155.012 126.329 156.868 126.645V126.882L156.395 127.178H146.087C145.731 127.178 145.553 127 145.553 126.645C147.449 126.329 148.397 125.618 148.397 124.512V43.9438C148.397 43.4304 147.528 42.9762 145.79 42.5813V42.0481ZM154.084 43.9438V91.6922H176.774C188.227 91.6922 195.711 85.4324 199.226 72.9128C199.581 69.6348 199.759 67.8378 199.759 67.5218C199.759 58.1617 195.889 51.0923 188.148 46.3135C184.751 44.3388 180.96 43.3514 176.774 43.3514H154.558C154.242 43.4304 154.084 43.6279 154.084 43.9438ZM255.356 40.1524H259.503C268.784 40.1524 277.808 44.2795 286.576 52.5338C295.028 61.8939 299.254 72.2611 299.254 83.6354V86.0643C299.254 97.9916 294.179 109.01 284.029 119.121C275.735 125.756 266.868 129.073 257.429 129.073C242.066 129.073 229.764 121.096 220.522 105.14C217.441 97.7941 215.901 91.0011 215.901 84.761C215.901 68.2525 223.129 55.1799 237.583 45.5434C244.179 41.9494 250.103 40.1524 255.356 40.1524ZM222.595 82.8653V86.0643C222.595 100.322 228.362 112.229 239.894 121.787C245.976 125.539 251.92 127.415 257.726 127.415C271.825 127.415 282.488 119.18 289.716 102.711C291.769 95.8786 292.796 89.7965 292.796 84.4648C292.796 69.0621 287.208 56.7992 276.031 47.676C270.304 43.7266 264.716 41.7519 259.266 41.7519H256.422C246.193 41.7519 237.149 47.3996 229.29 58.6949C224.827 67.1071 222.595 75.164 222.595 82.8653ZM311.249 42.0481H318.772C319.207 42.3246 335.024 67.0282 366.225 116.159H366.521V45.0102C366.521 43.6674 365.573 42.8578 363.677 42.5813V42.2851L364.151 42.0481H371.142C371.497 42.0876 371.675 42.2653 371.675 42.5813C369.582 42.8183 368.535 43.6279 368.535 45.0102V126.645C368.535 127 368.377 127.178 368.061 127.178H366.758L316.699 49.5718V125.045C316.699 125.598 317.647 126.131 319.543 126.645V126.882L319.009 127.178H312.019C311.703 127.178 311.545 127 311.545 126.645C313.599 126.645 314.626 125.479 314.626 123.149V46.6097C314.626 44.0821 313.678 42.8183 311.782 42.8183C311.111 42.8183 310.775 42.6405 310.775 42.2851L311.249 42.0481ZM383.374 42.0481H394.215V42.2851L391.905 43.6476C391.589 43.6476 391.411 44.5363 391.371 46.3135V122.853C391.371 125.183 392.142 126.348 393.682 126.348C394.195 126.348 394.452 126.526 394.452 126.882L393.978 127.178H383.67C383.315 127.178 383.137 127 383.137 126.645C385.033 126.131 385.98 125.598 385.98 125.045V44.714C385.98 43.2922 385.112 42.5813 383.374 42.5813V42.0481ZM406.506 42.0481H416.814C417.17 42.0876 417.348 42.2653 417.348 42.5813C415.452 42.9762 414.504 43.4304 414.504 43.9438V96.3131C429.67 73.3275 440.59 56.4042 447.264 45.5434L447.561 43.9438C447.561 43.3514 446.514 42.8972 444.421 42.5813V42.2851L444.954 42.0481H452.952C453.307 42.0876 453.485 42.2653 453.485 42.5813C451.115 42.5813 447.758 46.432 443.414 54.1333C437.292 63.3355 432.474 70.8591 428.959 76.7042C430.223 78.8764 441.064 95.1677 461.482 125.578C462.865 126.25 463.556 126.684 463.556 126.882L463.023 127.178H452.715C452.359 127.178 452.181 127 452.181 126.645C453.919 126.25 454.788 125.795 454.788 125.282V124.749C454.788 123.919 449.792 116.139 439.8 101.408C430.835 87.8218 426.273 81.0091 426.115 80.9696H425.878C425.681 81.5225 421.889 87.5256 414.504 98.9789V124.512C414.622 125.934 415.57 126.645 417.348 126.645V126.882L416.814 127.178H406.506C406.151 127.178 405.973 127 405.973 126.645C407.751 126.645 408.698 125.934 408.817 124.512V43.9438C408.817 43.4304 407.869 42.9762 405.973 42.5813V42.2851L406.506 42.0481ZM506.475 42.0481H513.228C513.742 42.0481 517.612 51.8822 524.84 71.5502L545.989 125.578C548.042 126.21 549.069 126.645 549.069 126.882L548.595 127.178H537.221C536.866 127.178 536.688 127 536.688 126.645C538.939 126.171 540.065 125.637 540.065 125.045L529.757 97.6164H489.71C483.47 113.809 480.211 122.675 479.935 124.216C479.935 125.479 481.139 126.289 483.548 126.645V126.882L483.015 127.178H475.551C475.195 127.178 475.018 127 475.018 126.645C477.111 126.645 479.263 122.972 481.475 115.626C497.312 75.3417 506.514 51.6254 509.081 44.477C509.081 43.6476 508.213 43.0157 506.475 42.5813V42.0481ZM509.615 46.3135C509.615 46.6294 503.236 63.296 490.48 96.3131H528.927L509.852 46.3135H509.615Z" fill="black"/>
<path d="M190.66 7.668C191.212 7.788 191.636 8.028 191.932 8.388C192.236 8.74 192.388 9.196 192.388 9.756C192.388 10.476 192.12 11.032 191.584 11.424C191.056 11.808 190.272 12 189.232 12H185.368V3.6H188.992C189.928 3.6 190.652 3.788 191.164 4.164C191.684 4.54 191.944 5.072 191.944 5.76C191.944 6.224 191.828 6.62 191.596 6.948C191.372 7.268 191.06 7.508 190.66 7.668ZM186.256 4.332V7.38H188.932C189.612 7.38 190.136 7.252 190.504 6.996C190.872 6.732 191.056 6.352 191.056 5.856C191.056 5.36 190.872 4.984 190.504 4.728C190.136 4.464 189.612 4.332 188.932 4.332H186.256ZM189.22 11.268C189.972 11.268 190.54 11.14 190.924 10.884C191.308 10.628 191.5 10.228 191.5 9.684C191.5 8.636 190.74 8.112 189.22 8.112H186.256V11.268H189.22ZM205.183 9.756H200.503L199.495 12H198.571L202.411 3.6H203.287L207.127 12H206.191L205.183 9.756ZM204.859 9.036L202.843 4.524L200.827 9.036H204.859ZM219.308 7.668C219.86 7.788 220.284 8.028 220.58 8.388C220.884 8.74 221.036 9.196 221.036 9.756C221.036 10.476 220.768 11.032 220.232 11.424C219.704 11.808 218.92 12 217.88 12H214.016V3.6H217.64C218.576 3.6 219.3 3.788 219.812 4.164C220.332 4.54 220.592 5.072 220.592 5.76C220.592 6.224 220.476 6.62 220.244 6.948C220.02 7.268 219.708 7.508 219.308 7.668ZM214.904 4.332V7.38H217.58C218.26 7.38 218.784 7.252 219.152 6.996C219.52 6.732 219.704 6.352 219.704 5.856C219.704 5.36 219.52 4.984 219.152 4.728C218.784 4.464 218.26 4.332 217.58 4.332H214.904ZM217.868 11.268C218.62 11.268 219.188 11.14 219.572 10.884C219.956 10.628 220.148 10.228 220.148 9.684C220.148 8.636 219.388 8.112 217.868 8.112H214.904V11.268H217.868ZM231.268 9.096V12H230.392V9.096L227.032 3.6H227.98L230.86 8.316L233.74 3.6H234.628L231.268 9.096ZM242.217 4.368V7.668H246.561V8.436H242.217V12H241.329V3.6H247.089V4.368H242.217ZM257.989 12.072C257.157 12.072 256.401 11.888 255.721 11.52C255.049 11.144 254.521 10.632 254.137 9.984C253.761 9.336 253.573 8.608 253.573 7.8C253.573 6.992 253.761 6.264 254.137 5.616C254.521 4.968 255.049 4.46 255.721 4.092C256.401 3.716 257.157 3.528 257.989 3.528C258.821 3.528 259.569 3.712 260.233 4.08C260.905 4.448 261.433 4.96 261.817 5.616C262.201 6.264 262.393 6.992 262.393 7.8C262.393 8.608 262.201 9.34 261.817 9.996C261.433 10.644 260.905 11.152 260.233 11.52C259.569 11.888 258.821 12.072 257.989 12.072ZM257.989 11.28C258.653 11.28 259.253 11.132 259.789 10.836C260.325 10.532 260.745 10.116 261.049 9.588C261.353 9.052 261.505 8.456 261.505 7.8C261.505 7.144 261.353 6.552 261.049 6.024C260.745 5.488 260.325 5.072 259.789 4.776C259.253 4.472 258.653 4.32 257.989 4.32C257.325 4.32 256.721 4.472 256.177 4.776C255.641 5.072 255.217 5.488 254.905 6.024C254.601 6.552 254.449 7.144 254.449 7.8C254.449 8.456 254.601 9.052 254.905 9.588C255.217 10.116 255.641 10.532 256.177 10.836C256.721 11.132 257.325 11.28 257.989 11.28ZM271.398 4.368H268.446V3.6H275.238V4.368H272.286V12H271.398V4.368ZM285.712 12.072C284.88 12.072 284.124 11.888 283.444 11.52C282.772 11.144 282.244 10.632 281.86 9.984C281.484 9.336 281.296 8.608 281.296 7.8C281.296 6.992 281.484 6.264 281.86 5.616C282.244 4.968 282.772 4.46 283.444 4.092C284.124 3.716 284.88 3.528 285.712 3.528C286.544 3.528 287.292 3.712 287.956 4.08C288.628 4.448 289.156 4.96 289.54 5.616C289.924 6.264 290.116 6.992 290.116 7.8C290.116 8.608 289.924 9.34 289.54 9.996C289.156 10.644 288.628 11.152 287.956 11.52C287.292 11.888 286.544 12.072 285.712 12.072ZM285.712 11.28C286.376 11.28 286.976 11.132 287.512 10.836C288.048 10.532 288.468 10.116 288.772 9.588C289.076 9.052 289.228 8.456 289.228 7.8C289.228 7.144 289.076 6.552 288.772 6.024C288.468 5.488 288.048 5.072 287.512 4.776C286.976 4.472 286.376 4.32 285.712 4.32C285.048 4.32 284.444 4.472 283.9 4.776C283.364 5.072 282.94 5.488 282.628 6.024C282.324 6.552 282.172 7.144 282.172 7.8C282.172 8.456 282.324 9.052 282.628 9.588C282.94 10.116 283.364 10.532 283.9 10.836C284.444 11.132 285.048 11.28 285.712 11.28ZM303.522 7.8H304.374V11.004C303.982 11.348 303.518 11.612 302.982 11.796C302.446 11.98 301.882 12.072 301.29 12.072C300.45 12.072 299.694 11.888 299.022 11.52C298.35 11.152 297.822 10.644 297.438 9.996C297.054 9.34 296.862 8.608 296.862 7.8C296.862 6.992 297.054 6.264 297.438 5.616C297.822 4.96 298.35 4.448 299.022 4.08C299.694 3.712 300.454 3.528 301.302 3.528C301.942 3.528 302.53 3.632 303.066 3.84C303.602 4.04 304.054 4.34 304.422 4.74L303.87 5.304C303.206 4.648 302.362 4.32 301.338 4.32C300.658 4.32 300.042 4.472 299.49 4.776C298.946 5.072 298.518 5.488 298.206 6.024C297.894 6.552 297.738 7.144 297.738 7.8C297.738 8.456 297.894 9.048 298.206 9.576C298.518 10.104 298.946 10.52 299.49 10.824C300.034 11.128 300.646 11.28 301.326 11.28C302.19 11.28 302.922 11.064 303.522 10.632V7.8ZM318.124 12L316.204 9.3C315.988 9.324 315.764 9.336 315.532 9.336H313.276V12H312.388V3.6H315.532C316.604 3.6 317.444 3.856 318.052 4.368C318.66 4.88 318.964 5.584 318.964 6.48C318.964 7.136 318.796 7.692 318.46 8.148C318.132 8.596 317.66 8.92 317.044 9.12L319.096 12H318.124ZM315.508 8.58C316.34 8.58 316.976 8.396 317.416 8.028C317.856 7.66 318.076 7.144 318.076 6.48C318.076 5.8 317.856 5.28 317.416 4.92C316.976 4.552 316.34 4.368 315.508 4.368H313.276V8.58H315.508ZM331.827 9.756H327.147L326.139 12H325.215L329.055 3.6H329.931L333.771 12H332.835L331.827 9.756ZM331.503 9.036L329.487 4.524L327.471 9.036H331.503ZM341.549 4.368V7.668H345.893V8.436H341.549V12H340.661V3.6H346.421V4.368H341.549ZM353.755 3.6H354.643V12H353.755V3.6ZM368.816 11.232V12H362.876V3.6H368.636V4.368H363.764V7.356H368.108V8.112H363.764V11.232H368.816Z" fill="black"/>
<line y1="6.5" x2="167" y2="6.5" stroke="black"/>
<line x1="386" y1="6.5" x2="553" y2="6.5" stroke="black"/>
</svg>
